<?xml version="1.0" encoding="UTF-8" standalone="no"?>
<!DOCTYPE svg PUBLIC "-//W3C//DTD SVG 1.1//EN" "http://www.w3.org/Graphics/SVG/1.1/DTD/svg11.dtd">
<svg width="100%" height="100%" viewBox="0 0 969 969" version="1.1" xmlns="http://www.w3.org/2000/svg" xmlns:xlink="http://www.w3.org/1999/xlink" xml:space="preserve" xmlns:serif="http://www.serif.com/" style="fill-rule:evenodd;clip-rule:evenodd;stroke-linecap:round;stroke-linejoin:round;stroke-miterlimit:1.5;">
    <g id="Layer1">
        <g transform="matrix(1.02508,-5.88828e-05,5.64256e-05,0.982307,-12.1983,8.29397)">
            <path d="M489.574,370.762L457.664,370.525L841.362,373.37C858.402,373.496 874.467,381.68 885.045,395.622C895.622,409.564 899.569,427.759 895.778,445.096C873.775,545.708 834.292,726.247 816.543,807.404C810.714,834.059 795.329,857.375 773.545,872.565C769.643,875.286 765.747,878.003 762.068,880.569C747.893,890.454 731.197,895.662 714.15,895.516L488.422,893.592" style="fill:none;stroke:black;stroke-width:79.94px;"/>
        </g>
        <g transform="matrix(-1.02508,-5.88828e-05,-5.64256e-05,0.982307,997.03,8.29397)">
            <path d="M489.574,370.762L457.664,370.525L841.362,373.37C858.402,373.496 874.467,381.68 885.045,395.622C895.622,409.564 899.569,427.759 895.778,445.096C873.775,545.708 834.292,726.247 816.543,807.404C810.714,834.059 795.329,857.375 773.545,872.565C769.643,875.286 765.747,878.003 762.068,880.569C747.893,890.454 731.197,895.662 714.15,895.516L488.422,893.592" style="fill:none;stroke:black;stroke-width:79.94px;"/>
        </g>
        <g transform="matrix(0.96778,0,0,1.05547,4.55624,-17.7492)">
            <path d="M542.054,98.393L445.82,97.992C445.82,97.992 444.141,98.113 441.205,98.324C378.686,102.813 323.906,138.419 298.586,191.024C298.586,191.024 298.586,191.024 298.586,191.024C280.216,229.188 270.729,270.445 270.729,312.161L270.729,357.56" style="fill:none;stroke:black;stroke-width:79.26px;"/>
        </g>
        <g transform="matrix(-0.96778,0,0,1.05547,990.115,-17.7492)">
            <path d="M542.054,98.393L445.82,97.992C445.82,97.992 444.141,98.113 441.205,98.324C378.686,102.813 323.906,138.419 298.586,191.024C298.586,191.024 298.586,191.024 298.586,191.024C280.216,229.188 270.729,270.445 270.729,312.161L270.729,357.56" style="fill:none;stroke:black;stroke-width:79.26px;"/>
        </g>
    </g>
</svg>
