<?xml version="1.0" encoding="UTF-8" standalone="no"?>
<svg
   viewBox="-2 -4 24 24"
   width="24"
   fill="currentColor"
   version="1.1"
   id="svg323"
   sodipodi:docname="heart-f-filled.svg"
   inkscape:version="1.2.2 (732a01da63, 2022-12-09)"
   xmlns:inkscape="http://www.inkscape.org/namespaces/inkscape"
   xmlns:sodipodi="http://sodipodi.sourceforge.net/DTD/sodipodi-0.dtd"
   xmlns="http://www.w3.org/2000/svg"
   xmlns:svg="http://www.w3.org/2000/svg">
  <defs
     id="defs327" />
  <sodipodi:namedview
     id="namedview325"
     pagecolor="#ffffff"
     bordercolor="#000000"
     borderopacity="0.25"
     inkscape:showpageshadow="2"
     inkscape:pageopacity="0.0"
     inkscape:pagecheckerboard="0"
     inkscape:deskcolor="#d1d1d1"
     showgrid="false"
     inkscape:zoom="42.791667"
     inkscape:cx="4.533593"
     inkscape:cy="10.597858"
     inkscape:window-width="2560"
     inkscape:window-height="1361"
     inkscape:window-x="2391"
     inkscape:window-y="-9"
     inkscape:window-maximized="1"
     inkscape:current-layer="svg323" />
  <path
     style="fill:#999999;stroke-width:0.023369"
     d=""
     id="path636"
     transform="translate(-2,-4)" />
  <path
     style="fill:#999999;stroke-width:0.0286353"
     d="M 9.6674395,18.473398 C 9.4744483,18.396361 9.2696392,18.206544 8.2119167,17.124374 7.0014526,15.885933 1.6974915,10.310281 0.79149638,9.323849 0.27743827,8.7641513 0.13234738,8.5866017 -0.05097269,8.2929049 -0.50810427,7.5605375 -0.81530399,6.7628904 -0.96931676,5.9084196 -1.0278187,5.583825 -1.0520352,4.5193773 -1.0103886,4.1026553 -0.92477225,3.2458685 -0.55409613,2.2052013 -0.06066758,1.4363041 0.56935148,0.45456312 1.3288059,-0.2366458 2.3291282,-0.73874089 2.8787329,-1.0146061 3.3223469,-1.1650613 3.9442328,-1.2865174 c 0.3779119,-0.073808 1.4940334,-0.074076 1.8743144,-4.506e-4 1.0859559,0.2102482 2.0451831,0.67042161 2.8230475,1.35431 0.1448419,0.12734331 0.5130202,0.48736873 0.818174,0.80005661 L 10.014592,1.4359221 10.609147,0.82652988 c 0.855155,-0.87649188 1.191235,-1.14213248 1.909376,-1.50917957 1.225034,-0.62612561 2.623166,-0.80613281 3.864343,-0.49752751 1.899186,0.47221231 3.423367,1.80339694 4.17981,3.6505492 0.281962,0.6885172 0.432744,1.3923175 0.463212,2.162112 0.05274,1.3326388 -0.282413,2.5852263 -0.98993,3.6996727 -0.183053,0.2883334 -0.351238,0.4915487 -0.933012,1.12734 -0.988583,1.0803693 -6.262533,6.6263573 -7.465631,7.8507173 -1.153514,1.173897 -1.168241,1.184872 -1.608554,1.198892 -0.1720445,0.0056 -0.2864625,-0.0058 -0.3613185,-0.03571 z"
     id="path638" />
</svg>
